<mxfile host="app.diagrams.net" modified="2023-02-22T09:22:05.228Z" agent="5.0 (Macintosh; Intel Mac OS X 10_15_7) AppleWebKit/537.36 (KHTML, like Gecko) Chrome/110.0.0.0 Safari/537.36 Edg/110.0.1587.50" etag="R_XfV5udnCOQFUVMV9YS" version="20.8.21" type="github">
  <diagram name="第 1 页" id="iU1wJHz4QzBjbuXra4Fh">
    <mxGraphModel dx="1026" dy="575" grid="1" gridSize="10" guides="1" tooltips="1" connect="1" arrows="1" fold="1" page="1" pageScale="1" pageWidth="2336" pageHeight="1654" math="0" shadow="0">
      <root>
        <mxCell id="0" />
        <mxCell id="1" parent="0" />
        <mxCell id="q22GGok8pYyb7Tllb0Tu-1" value="开始" style="rounded=1;whiteSpace=wrap;html=1;" vertex="1" parent="1">
          <mxGeometry x="80" y="270" width="60" height="40" as="geometry" />
        </mxCell>
        <mxCell id="q22GGok8pYyb7Tllb0Tu-2" value="" style="rounded=0;whiteSpace=wrap;html=1;" vertex="1" parent="1">
          <mxGeometry x="280" y="230" width="80" height="40" as="geometry" />
        </mxCell>
        <mxCell id="q22GGok8pYyb7Tllb0Tu-6" style="edgeStyle=orthogonalEdgeStyle;rounded=0;orthogonalLoop=1;jettySize=auto;html=1;entryX=0.5;entryY=0;entryDx=0;entryDy=0;" edge="1" parent="1" source="q22GGok8pYyb7Tllb0Tu-4" target="q22GGok8pYyb7Tllb0Tu-5">
          <mxGeometry relative="1" as="geometry" />
        </mxCell>
        <mxCell id="q22GGok8pYyb7Tllb0Tu-4" value="判断是否被拉黑" style="rhombus;whiteSpace=wrap;html=1;" vertex="1" parent="1">
          <mxGeometry x="170" y="250" width="80" height="80" as="geometry" />
        </mxCell>
        <mxCell id="q22GGok8pYyb7Tllb0Tu-5" value="获取好友关系" style="rounded=0;whiteSpace=wrap;html=1;" vertex="1" parent="1">
          <mxGeometry x="170" y="370" width="80" height="40" as="geometry" />
        </mxCell>
      </root>
    </mxGraphModel>
  </diagram>
</mxfile>
